<svg xmlns="http://www.w3.org/2000/svg" width="503.5" height="503.5"><g transform="translate(-105.85 -334.902)"><rect width="502.1" height="502.1" x="106.6" y="335.6" ry="251" fill-rule="evenodd" stroke="#000" stroke-width="1.414"/><path d="M230.231 668.603l-20.152 20.152 116.036 116.036 20.152-20.152-116.036-116.036z" fill="#80b3ff" fill-rule="evenodd"/><path d="M156.41 555.89l-20.153 20.152L252.293 692.08l20.152-20.153L156.41 555.89z" fill="#2a7fff" fill-rule="evenodd"/><path d="M275.627 459.299l-20.152-20.153-116.036 116.037 20.152 20.152L275.627 459.3z" fill="#0055d4" fill-rule="evenodd"/><path d="M388.34 385.477l-20.152-20.152L252.15 481.36l20.153 20.152L388.34 385.477z" fill="#003380" fill-rule="evenodd"/><path d="M462.94 692.008l-20.153-20.153-116.036 116.037 20.153 20.152L462.94 692.008z" fill="#80ff80" fill-rule="evenodd"/><path d="M575.723 618.257l-20.152-20.153L439.535 714.14l20.152 20.153 116.036-116.036z" fill="#2aff2a" fill-rule="evenodd"/><path d="M462.94 481.29l-20.153 20.153 116.037 116.036 20.152-20.153L462.94 481.29z" fill="#00d400"/><path d="M377.617 356.159l-20.152 20.152 116.067 116.066 20.152-20.152L377.617 356.16z" fill="green" fill-rule="evenodd"/><path d="M357.581 335.626L106.487 586.72l251.094 251.093L608.675 586.72 357.58 335.626zm42.992 44.83L473.76 492.25l94.47 94.47-19.73 19.728 15.274 23.334-111.793 73.186-94.399 94.399-19.728-19.729-23.335 15.274-73.185-111.794-94.47-94.47 19.728-19.727-15.273-23.335 111.723-73.115 94.54-94.54 19.728 19.728 23.335-15.273zM377.24 395.73L262.97 470.542l-96.45 96.45 74.742 114.197 96.52 96.52 114.127-74.67 96.52-96.52-74.741-114.198-96.52-96.52z" fill-rule="evenodd"/></g></svg>