<svg xmlns="http://www.w3.org/2000/svg" width="48" height="48"><g transform="translate(0 -1004)"><path d="M27.17 1045c2.19-3 3.83-7 3.83-11 0-1-.42-1-2.81-1-3.37 0-3.57-1-.7-4l2.4-3s1.43-2 2.53-3c1.82-2 1.82-2 3.63 0 1.59 2 3.74 5 4.93 6 2.87 3 2.67 4-.7 4-2.36 0-2.82 0-2.82 1 0 5-5.34 10-10.11 13-2.35 1-2.35 1-.18-2zm-14.37-11c-1.44-2-1.54-2-1.54-2-1.24-2-3.112-4-3.112-4-2.87-3-2.67-4 .697-4 2.365 0 2.825 0 2.825-1 0-5 4.09-10 10.68-13 4.35-1 2.83-1-.39 2-1.81 3-3.83 7-3.84 11 0 1 .43 1 2.82 1 3.37 0 3.57 1 .7 4l-3.12 4c-.62 1 0 0-1.53 2-.85 1-1.79 2-2.1 2-.31 0-1.25-1-2.09-2z" fill="#333"/><rect width="46.2" height="46.06" x=".959" y="1005" ry="1.894" fill="none" stroke="#000" stroke-width="1.922" stroke-linejoin="round"/></g></svg>