<svg height="512" viewBox="0 0 512 512" width="512" xmlns="http://www.w3.org/2000/svg"><path d="M497.913 497.913c-18.782 18.782-49.225 18.782-68.008 0l-84.862-84.863c-34.89 22.382-76.13 35.717-120.66 35.717C100.47 448.767 0 348.312 0 224.383S100.47 0 224.384 0c123.93 0 224.384 100.452 224.384 224.383 0 44.514-13.352 85.77-35.718 120.676l84.863 84.862c18.782 18.782 18.782 49.21 0 67.99zM224.383 64.11c-88.51 0-160.273 71.746-160.273 160.272s71.764 160.274 160.274 160.274c88.525 0 160.273-71.748 160.273-160.274S312.91 64.11 224.384 64.11z"/></svg>