<svg xmlns="http://www.w3.org/2000/svg" xmlns:xlink="http://www.w3.org/1999/xlink" width="960" height="1900" enable-background="new"><defs><linearGradient id="a"><stop offset="0" stop-color="gray" stop-opacity="0"/><stop offset="1" stop-color="gray"/></linearGradient><filter id="f" color-interpolation-filters="sRGB"><feBlend mode="lighten" in2="BackgroundImage"/></filter><linearGradient xlink:href="#a" id="b" gradientUnits="userSpaceOnUse" gradientTransform="matrix(1.034 -.127 .114 .932 -605 333.9)" x1="1024" y1="-605.6" x2="1070" y2="-609.6"/><linearGradient xlink:href="#a" id="c" gradientUnits="userSpaceOnUse" gradientTransform="matrix(1.034 -.127 .114 .932 -605 333.9)" x1="1022" y1="-592.5" x2="1082" y2="-592.5"/><linearGradient xlink:href="#a" id="d" gradientUnits="userSpaceOnUse" gradientTransform="matrix(1.034 -.127 .114 .932 -608.8 337)" x1="1022" y1="-592.5" x2="1082" y2="-592.5"/><linearGradient xlink:href="#a" id="e" gradientUnits="userSpaceOnUse" gradientTransform="matrix(1.034 -.127 .114 .932 -604.8 335.9)" x1="1022" y1="-592.5" x2="1082" y2="-592.5"/></defs><rect width="960" height="1900" ry="0" fill-opacity=".078" fill-rule="evenodd" stroke="#000"/><path fill="#6e6e6e" fill-rule="evenodd" d="M0 1640h960v260.9H0z"/><path d="M-.47 1641H959.5" fill="none" stroke="#000" enable-background="new"/><text style="line-height:125%" x="435.4" y="389.8" font-size="40" letter-spacing="0" word-spacing="0" font-family="Sans"/><text transform="matrix(.984 0 0 1.016 -79.02 847.043)" y="-698.116" x="159.996" style="line-height:125%" font-size="39.359" letter-spacing="0" word-spacing="0" fill-opacity=".667" font-family="Sans"><tspan style="-inkscape-font-specification:Museo Cyrl" y="-698.116" x="159.996" font-size="94.461" letter-spacing="-4.251" font-family="Museo Cyrl">thatPUB</tspan></text><g transform="translate(-1.2 846.547)"><rect width="307.9" height="68.77" x="572.3" y="-698.9" ry="5.927" fill-rule="evenodd" stroke="#000" stroke-width="2.126" stroke-linecap="round" stroke-linejoin="round"/><text style="line-height:125%" x="633.433" y="-621.145" transform="scale(.948 1.055)" font-size="37.923" letter-spacing="0" word-spacing="0" fill="#fff" font-family="Sans"><tspan x="633.433" y="-621.145" style="-inkscape-font-specification:Quicksand Bold" font-size="34.131" font-weight="bold" font-family="Quicksand">Launch the app</tspan></text></g><g fill="none" stroke-opacity=".878"><path d="M385.5-352.9c53.7-32.5 52.9 37.8 52.9 37.8" stroke="url(#b)" stroke-width=".989" transform="matrix(.89 .122 -.135 .99 316.266 384.32)"/><path d="M414.2-333.2z" stroke="url(#c)" stroke-width=".989" transform="matrix(.89 .122 -.135 .99 316.266 384.32)"/><path d="M427.9-328.3c.8-5.3 11.4.2 10.5 12" stroke="url(#d)" stroke-width=".989" transform="matrix(.89 .122 -.135 .99 316.266 384.32)"/><path d="M443.7-333s-5.6.5-5.2 15.6" stroke="url(#e)" stroke-width="1.008" transform="matrix(.89 .122 -.135 .99 316.266 384.32)"/></g><g fill="gray" fill-opacity=".88"><text transform="matrix(.887 -.204 .158 .977 -.02 528.547)" y="-270.766" x="611.773" style="line-height:125%" font-size="39.998" letter-spacing="0" word-spacing="0" font-family="Sans"><tspan style="-inkscape-font-specification:Alex Brush Bold Italic" y="-270.766" x="611.773" font-size="36" font-style="italic" font-weight="bold" font-family="Alex Brush">find something now!</tspan></text><path d="M659-496.3c.7-.7.8-.9 1.2-1.2.3-.1.7-.6 1.1-.6.4-.2.5-.5 1-.9.1-.2.4-.5.8-.7.6-.4.8-.7 1.3-.9l1.2-.8c.2-.2.8-.5 1.2-.9.4-.2.9-.5 1.5-1 .2-.2.9-.5 1.4-.7.6-.4 1-.7 1.6-.9.6-.5.9-.7 1.5-1 .3-.7 1-.9 1.6-1.2.5-.2 1-.7 1.5-1 .6-.2 1.1-.6 1.5-.9.6-.2 1.2-.7 1.6-1 .6-.1 1.1-.4 1.7-.6.3-.4 1-.7 1.3-.8.5-.4 1.2-.6 1.7-1 .4-.3.9-.5 1.5-.6.4-.4.9-.5 1.4-.8.5-.4 1-.4 1.3-.5.8-.3 1.3-.5 1.5-.6.4-.4 1.1-.4 1.2-.7.5 0 1.1-.2 1.2-.2.7-.1.8-.5 1.3-.8.5-.2.7-.4 1.3-.5.1-.1.4-.1.9-.5.3 0 .7-.1 1-.1.2-.1.5-.4 1-.4.3 0 .7-.1 1.1-.5l.9-.3.8-.2.9-.3.9-.5.9-.2.9-.3-1.1 2.6-.9.2-.9.4-1.1.2c-.4.2-.4.2-.8.3-.5.3-.8.3-.9.4-.7.2-1 .4-1.2.4-.2.1-.7.2-.8.3-.7.3-.9.3-1.2.3-.3.4-.6.4-1 .5-.1 0-.8.2-1 .2-.3.2-1 .4-1.1.7-.6.2-.7.4-1.2.6-.3.1-.8.3-1.3.4-.1.1-.9.2-1.3.4-.3.2-.8.5-1.2.7-.5.2-1.1.4-1.5.5-.6.3-.8.7-1.3.9-.5.2-1 .3-1.5.7-.4.3-1.1.6-1.5.8-.5.6-1.1.8-1.5.8-.6.3-1.1.8-1.7.9-.4.4-.8.6-1.6 1-.3.3-1 .4-1.7.8-.3.3-.9.6-1.4 1-.6.5-1.1.6-1.6.9-.5.6-1 .8-1.7 1.1-.2.1-.8.5-1.4.9-.5.2-1 .6-1.5.9-.4.5-.8.9-1.2 1.1-.7.3-1.1.5-1.4.9-.4.3-.9.5-1.2.8-.5.2-.7.6-1.1.8-.4.3-.9.7-1.1.8-.3.1-.6.4-1 .5-.4.4-.7.5-.9.9-.3.3-.7.6-1.1.9l1.2-2.4z" stroke="#000" stroke-width=".437" stroke-linecap="round" stroke-linejoin="round" transform="matrix(.89 .122 -.135 .99 -.02 528.547)"/></g><g transform="matrix(2.098 0 0 1.55 -259.3 1019.6)" stroke="#000"><rect ry="0" y="-470.1" x="162.2" height="148.2" width="148.2" fill="#fff" fill-rule="evenodd"/><path d="M162.2-321.6c0-.4 148.2-148.2 148.2-148.2M162.2-469.8l148.2 147.5" fill="none" stroke-opacity=".667"/></g><g transform="matrix(2.098 0 0 1.55 227.7 1313.5)" enable-background="new" stroke="#000"><rect ry="0" y="-470.1" x="162.2" height="148.2" width="148.2" fill="#fff" fill-rule="evenodd"/><path d="M162.2-321.6c0-.4 148.2-148.2 148.2-148.2M162.2-469.8l148.2 147.5" fill="none" stroke-opacity=".667"/></g><text style="text-align:center;line-height:125%" x="-3.74" y="688.3" font-size="40" letter-spacing="0" word-spacing="0" text-anchor="middle" font-family="Sans"/><g transform="matrix(2.098 0 0 1.55 -259.3 1609.6)" stroke="#000"><rect ry="0" y="-470.1" x="162.2" height="148.2" width="148.2" fill="#fff" fill-rule="evenodd"/><path d="M162.2-321.6c0-.4 148.2-148.2 148.2-148.2M162.2-469.8l148.2 147.5" fill="none" stroke-opacity=".667"/></g><text y="412.4" x="480" style="text-align:center;line-height:125%;-inkscape-font-specification:Arvo Bold" font-size="48" font-weight="bold" letter-spacing="0" word-spacing="0" text-anchor="middle" fill-opacity=".667" font-family="Arvo" transform="matrix(1.013 0 0 1 -5.456 847.6)"><tspan y="412.4" x="480">Ready?</tspan></text><g transform="matrix(1.013 0 0 1 -5.456 847.6)"><rect width="307.8" height="68.77" x="325.3" y="443.5" ry="5.927" fill-rule="evenodd" stroke="#000" stroke-width="2.125" stroke-linecap="round" stroke-linejoin="round"/><text style="text-align:center;line-height:125%" x="480.121" y="487.623" font-size="40" letter-spacing="0" word-spacing="0" text-anchor="middle" fill="#fff" font-family="Sans"><tspan x="480.121" y="487.623" style="text-align:center;-inkscape-font-specification:Quicksand Bold" font-size="36" font-weight="bold" font-family="Quicksand">Start searching</tspan></text></g><text style="text-align:end;line-height:125%;-inkscape-font-specification:Quicksand Bold" x="430.61" y="656.688" font-size="24" font-weight="bold" letter-spacing="0" word-spacing="0" text-anchor="end" fill-opacity=".667" font-family="Quicksand" transform="translate(0 847.6)"><tspan x="430.61" y="656.688">Spread the word</tspan></text><g><text y="893.6" x="489.683" style="text-align:start;line-height:140%;-inkscape-font-specification:Quicksand Bold" font-size="19" font-weight="bold" letter-spacing="0" word-spacing="0" fill="#fafafa" font-family="Quicksand" transform="translate(-10.44 830.3)"><tspan y="893.6" x="489.683" style="-inkscape-font-specification:Quicksand Bold">some link</tspan><tspan y="920.2" x="489.683" style="-inkscape-font-specification:Quicksand Bold">other link</tspan><tspan y="946.8" x="489.683" style="-inkscape-font-specification:Quicksand Bold">better link</tspan><tspan y="973.4" x="489.683" style="-inkscape-font-specification:Quicksand Bold">contact link</tspan><tspan y="1000" x="489.683" style="-inkscape-font-specification:Quicksand Bold">about us link</tspan></text></g><g stroke="#000" stroke-opacity=".667"><g transform="matrix(.46 0 0 .468 489.62 1685.696)" enable-background="new"><rect width="148.2" height="148.2" x="162.2" y="-470.1" ry="0" fill="#fff" fill-rule="evenodd"/><path d="M162.2-321.6c0-.4 148.2-148.2 148.2-148.2M162.2-469.8l148.2 147.5" fill="none"/></g><g transform="matrix(.46 0 0 .468 395.62 1685.696)" enable-background="new"><rect width="148.2" height="148.2" x="162.2" y="-470.1" ry="0" fill="#fff" fill-rule="evenodd"/><path d="M162.2-321.6c0-.4 148.2-148.2 148.2-148.2M162.2-469.8l148.2 147.5" fill="none"/></g><g transform="matrix(.46 0 0 .468 587.62 1685.696)" enable-background="new"><rect width="148.2" height="148.2" x="162.2" y="-470.1" ry="0" fill="#fff" fill-rule="evenodd"/><path d="M162.2-321.6c0-.4 148.2-148.2 148.2-148.2M162.2-469.8l148.2 147.5" fill="none"/></g></g><g opacity=".555" filter="url(#f)"><image xlink:href="file:///home/jay/d/dev/design/responsive-template/overlay.png" height="1900" width="960"/><path d="M0 950V0h68v1900H0V950zm81 0V0h68v1900H81V950zm81 0V0h68v1900h-68V950zm81 0V0h68v1900h-68V950zm81 0V0h68v1900h-68V950zm81 0V0h69v1900h-69V950zm82 0V0h68v1900h-68V950zm81 0V0h68v1900h-68V950zm81 0V0h68v1900h-68V950zm81 0V0h68v1900h-68V950zm81 0V0h68v1900h-68V950zm81 0V0h68v1900h-68V950z" fill="#feabab"/></g></svg>